<!DOCTYPE svg PUBLIC "-//W3C//DTD SVG 1.1//EN" "http://www.w3.org/Graphics/SVG/1.1/DTD/svg11.dtd">
<!-- Uploaded to: SVG Repo, www.svgrepo.com, Transformed by: SVG Repo Mixer Tools -->
<svg height="800px" width="800px" version="1.1" id="Layer_1" xmlns="http://www.w3.org/2000/svg" xmlns:xlink="http://www.w3.org/1999/xlink" viewBox="0 0 512 512" xml:space="preserve" fill="#94d6ff" stroke="#94d6ff">
<g id="SVGRepo_bgCarrier" stroke-width="0"/>
<g id="SVGRepo_tracerCarrier" stroke-linecap="round" stroke-linejoin="round"/>
<g id="SVGRepo_iconCarrier"> <path style="fill:#c3e6ff;" d="M213.244,59.324c-6.097,0-11.942,1.069-17.366,3.021c-2.793-30.465-28.402-54.328-59.594-54.328 S79.483,31.88,76.69,62.344c-5.425-1.952-11.269-3.021-17.366-3.021c-28.336,0-51.307,22.971-51.307,51.307 s22.971,51.307,51.307,51.307h153.921c28.336,0,51.307-22.971,51.307-51.307S241.581,59.324,213.244,59.324z"/> <g> <path style="fill:#c3e6ff;" d="M87.712,32.925c-2.483,3.446-4.611,7.164-6.325,11.106c1.305,0.356,2.592,0.757,3.854,1.211 C85.631,40.99,86.48,36.873,87.712,32.925z"/> <path style="fill:#c3e6ff;" d="M221.795,144.835H67.875c-28.336,0-51.307-22.971-51.307-51.307c0-4.849,0.687-9.533,1.944-13.98 c-6.58,8.626-10.495,19.395-10.495,31.082c0,28.336,22.971,51.307,51.307,51.307h153.921c23.488,0,43.274-15.789,49.363-37.327 C253.234,136.9,238.445,144.835,221.795,144.835z"/> </g> <path style="fill:#c3e6ff;" d="M452.676,401.37c-6.097,0-11.942,1.069-17.366,3.021c-2.793-30.465-28.401-54.328-59.594-54.328 s-56.801,23.863-59.594,54.328c-5.425-1.951-11.27-3.021-17.366-3.021c-28.336,0-51.307,22.97-51.307,51.307 c0,28.336,22.971,51.307,51.307,51.307h153.921c28.336,0,51.307-22.971,51.307-51.307C503.983,424.34,481.013,401.37,452.676,401.37 z"/> <g> <path style="fill:#c3e6ff;" d="M327.144,374.971c-2.483,3.446-4.611,7.164-6.325,11.106c1.305,0.356,2.592,0.757,3.854,1.211 C325.063,383.036,325.912,378.918,327.144,374.971z"/> <path style="fill:#c3e6ff;" d="M461.228,486.881H307.307c-28.336,0-51.307-22.971-51.307-51.307c0-4.849,0.687-9.533,1.944-13.98 c-6.58,8.627-10.495,19.395-10.495,31.082c0,28.336,22.971,51.307,51.307,51.307h153.921c23.488,0,43.274-15.789,49.363-37.327 C492.666,478.946,477.877,486.881,461.228,486.881z"/> <path style="fill:#c3e6ff;" d="M427.023,136.284c-3.956,0-7.701,0.897-11.047,2.496c1.599-3.346,2.496-7.091,2.496-11.047 c0-14.168-11.485-25.653-25.653-25.653c-14.168,0-25.653,11.485-25.653,25.653c0,3.956,0.897,7.701,2.496,11.047 c-3.346-1.599-7.091-2.496-11.047-2.496c-14.168,0-25.653,11.485-25.653,25.653c0,14.168,11.485,25.653,25.653,25.653h68.409 c14.168,0,25.653-11.485,25.653-25.653C452.676,147.769,441.191,136.284,427.023,136.284z"/> </g> <path style="fill:#c3e6ff;" d="M435.574,170.489h-68.409c-14.168,0-25.653-11.485-25.653-25.653c0-0.705,0.036-1.402,0.092-2.094 c-5.3,4.7-8.643,11.556-8.643,19.196c0,14.168,11.485,25.653,25.653,25.653h68.409c13.463,0,24.495-10.373,25.562-23.559 C448.057,168.046,442.102,170.489,435.574,170.489z"/> <path style="fill:#c3e6ff;" d="M110.63,401.37c-3.956,0-7.701,0.897-11.047,2.496c1.599-3.346,2.496-7.091,2.496-11.047 c0-14.168-11.485-25.653-25.653-25.653s-25.653,11.485-25.653,25.653c0,3.956,0.897,7.701,2.496,11.047 c-3.346-1.599-7.091-2.496-11.047-2.496c-14.168,0-25.653,11.485-25.653,25.653s11.485,25.653,25.653,25.653h68.409 c14.168,0,25.653-11.485,25.653-25.653S124.799,401.37,110.63,401.37z"/> <path style="fill:#c3e6ff;" d="M119.182,435.574H50.772c-14.168,0-25.653-11.485-25.653-25.653c0-0.705,0.036-1.402,0.092-2.094 c-5.3,4.7-8.643,11.556-8.643,19.196c0,14.168,11.485,25.653,25.653,25.653h68.409c13.463,0,24.495-10.373,25.562-23.56 C131.664,433.132,125.709,435.574,119.182,435.574z"/> <circle style="fill:#ffdd00;" cx="221.795" cy="290.205" r="59.858"/> <path style="fill:#FCB82D;" d="M238.898,332.96c-33.059,0-59.858-26.799-59.858-59.858c0-12.154,3.633-23.456,9.857-32.898 c-16.238,10.706-26.96,29.096-26.96,50.001c0,33.059,26.799,59.858,59.858,59.858c20.904,0,39.295-10.722,50.001-26.96 C262.354,329.327,251.052,332.96,238.898,332.96z"/> <path d="M59.324,169.954h25.653c4.427,0,8.017-3.589,8.017-8.017s-3.589-8.017-8.017-8.017H59.324 c-23.871,0-43.29-19.42-43.29-43.29s19.42-43.29,43.29-43.29c5.024,0,9.954,0.857,14.653,2.547c2.333,0.838,4.925,0.55,7.019-0.781 c2.093-1.333,3.45-3.559,3.677-6.031c2.458-26.819,24.645-47.042,51.61-47.042s49.152,20.223,51.61,47.042 c0.227,2.471,1.584,4.698,3.677,6.031c2.094,1.333,4.686,1.622,7.019,0.781c4.7-1.69,9.63-2.547,14.653-2.547 c23.871,0,43.29,19.42,43.29,43.29s-19.42,43.29-43.29,43.29h-94.063c-4.427,0-8.017,3.589-8.017,8.017s3.589,8.017,8.017,8.017 h94.063c32.711,0,59.324-26.612,59.324-59.324s-26.612-59.324-59.324-59.324c-3.676,0-7.317,0.336-10.893,1.003 c-3.091-13.173-10.079-25.17-20.2-34.459C169.609,6.34,153.32,0,136.284,0c-17.035,0-33.325,6.34-45.867,17.849 c-10.121,9.289-17.109,21.287-20.2,34.459C66.64,51.643,63,51.307,59.324,51.307C26.612,51.307,0,77.919,0,110.63 S26.612,169.954,59.324,169.954z"/> <path d="M452.676,393.353c-3.675,0-7.317,0.336-10.892,1.003c-3.092-13.173-10.079-25.17-20.2-34.459 c-12.543-11.511-28.832-17.851-45.868-17.851s-33.325,6.34-45.867,17.849c-10.122,9.289-17.109,21.287-20.2,34.459 c-3.577-0.667-7.217-1.003-10.892-1.003c-32.711,0-59.324,26.612-59.324,59.324s26.612,59.324,59.324,59.324h94.063 c4.428,0,8.017-3.589,8.017-8.017c0-4.427-3.588-8.017-8.017-8.017h-94.063c-23.871,0-43.29-19.42-43.29-43.29 c0-23.871,19.42-43.29,43.29-43.29c5.023,0,9.954,0.857,14.653,2.547c2.333,0.839,4.924,0.551,7.019-0.781 c2.092-1.333,3.45-3.559,3.676-6.031c2.458-26.819,24.647-47.042,51.61-47.042c26.964,0,49.152,20.223,51.61,47.042 c0.227,2.471,1.584,4.698,3.676,6.031c2.094,1.334,4.686,1.62,7.019,0.781c4.7-1.691,9.631-2.547,14.653-2.547 c23.871,0,43.29,19.42,43.29,43.29c0,23.871-19.418,43.291-43.289,43.291h-25.653c-4.428,0-8.017,3.589-8.017,8.017 c0,4.427,3.588,8.017,8.017,8.017h25.653C485.388,512,512,485.388,512,452.676S485.388,393.353,452.676,393.353z"/> <path d="M289.67,290.205c0-37.426-30.449-67.875-67.875-67.875s-67.875,30.448-67.875,67.875s30.449,67.875,67.875,67.875 S289.67,327.631,289.67,290.205z M169.954,290.205c0-28.585,23.256-51.841,51.841-51.841s51.841,23.256,51.841,51.841 s-23.256,51.841-51.841,51.841S169.954,318.79,169.954,290.205z"/> <path d="M213.779,187.591v17.102c0,4.427,3.589,8.017,8.017,8.017s8.017-3.589,8.017-8.017v-17.102c0-4.427-3.589-8.017-8.017-8.017 S213.779,183.163,213.779,187.591z"/> <path d="M161.33,237.756c7.01,0,10.608-8.747,5.668-13.685l-12.093-12.093c-3.131-3.131-8.207-3.131-11.337,0 c-3.131,3.131-3.131,8.207,0,11.337l12.093,12.093C157.227,236.973,159.278,237.756,161.33,237.756z"/> <path d="M136.284,282.188h-17.102c-4.427,0-8.017,3.589-8.017,8.017c0,4.427,3.589,8.017,8.017,8.017h17.102 c4.427,0,8.017-3.589,8.017-8.017C144.301,285.777,140.711,282.188,136.284,282.188z"/> <path d="M155.661,345.001l-12.093,12.093c-2.919,2.918-3.113,7.74-0.426,10.877c2.998,3.501,8.502,3.721,11.763,0.46l12.093-12.093 c3.131-3.131,3.131-8.207,0-11.337C163.868,341.871,158.792,341.871,155.661,345.001z"/> <path d="M221.795,367.699c-4.427,0-8.017,3.589-8.017,8.017v17.102c0,4.427,3.589,8.017,8.017,8.017s8.017-3.589,8.017-8.017 v-17.102C229.812,371.289,226.223,367.699,221.795,367.699z"/> <path d="M287.93,345.001c-3.131-3.131-8.207-3.132-11.337,0c-3.132,3.131-3.132,8.206-0.001,11.337l12.092,12.093 c3.261,3.261,8.765,3.041,11.763-0.46c2.687-3.137,2.494-7.958-0.425-10.877L287.93,345.001z"/> <path d="M299.29,290.205c0,4.427,3.588,8.017,8.017,8.017h17.102c4.428,0,8.017-3.589,8.017-8.017c0-4.427-3.588-8.017-8.017-8.017 h-17.102C302.878,282.188,299.29,285.777,299.29,290.205z"/> <path d="M282.261,237.756c2.051,0,4.103-0.782,5.669-2.348l12.092-12.093c3.131-3.131,3.131-8.207-0.001-11.337 c-3.13-3.132-8.206-3.131-11.337,0l-12.092,12.093C271.654,229.008,275.25,237.756,282.261,237.756z"/> <path d="M110.63,393.353c-0.18,0-0.359,0.001-0.539,0.004c0.002-0.18,0.004-0.358,0.004-0.539c0-18.566-15.105-33.67-33.67-33.67 s-33.67,15.105-33.67,33.67c0,0.18,0.001,0.359,0.004,0.539c-0.18-0.003-0.359-0.004-0.539-0.004 c-18.566,0-33.67,15.105-33.67,33.67c0,18.566,15.105,33.67,33.67,33.67h68.409c18.566,0,33.67-15.105,33.67-33.67 C144.301,408.457,129.196,393.353,110.63,393.353z M110.63,444.66H42.221c-9.725,0-17.637-7.912-17.637-17.637 s7.912-17.637,17.637-17.637c2.659,0,5.213,0.576,7.59,1.712c3.034,1.451,6.749,0.812,9.125-1.564s3.015-6.092,1.565-9.125 c-1.136-2.379-1.712-4.933-1.712-7.591c0-9.725,7.912-17.637,17.637-17.637s17.637,7.912,17.637,17.637 c0,2.659-0.576,5.213-1.712,7.59c-1.45,3.034-0.812,6.749,1.564,9.126c2.376,2.376,6.093,3.013,9.126,1.565 c2.377-1.136,4.931-1.712,7.59-1.712c9.725,0,17.637,7.912,17.637,17.637S120.355,444.66,110.63,444.66z"/> <path d="M358.614,195.608h68.409c18.566,0,33.67-15.105,33.67-33.67s-15.105-33.67-33.67-33.67c-0.18,0-0.359,0.001-0.539,0.004 c0.003-0.18,0.004-0.358,0.004-0.539c0-18.566-15.105-33.67-33.67-33.67c-18.566,0-33.67,15.105-33.67,33.67 c0,0.18,0.001,0.359,0.004,0.539c-0.18-0.002-0.359-0.004-0.539-0.004c-18.566,0-33.67,15.105-33.67,33.67 S340.048,195.608,358.614,195.608z M358.614,144.301c2.659,0,5.213,0.576,7.59,1.712c3.065,1.465,6.722,0.839,9.126-1.564 c2.403-2.403,3.029-6.06,1.564-9.126c-1.136-2.377-1.712-4.93-1.712-7.59c0-9.725,7.912-17.637,17.637-17.637 s17.637,7.912,17.637,17.637c0,2.659-0.576,5.213-1.712,7.59c-1.465,3.066-0.839,6.723,1.564,9.126 c2.404,2.404,6.062,3.029,9.126,1.564c2.377-1.136,4.93-1.712,7.59-1.712c9.725,0,17.637,7.912,17.637,17.637 c0,9.725-7.912,17.637-17.637,17.637h-68.409c-9.725,0-17.637-7.912-17.637-17.637C340.977,152.213,348.889,144.301,358.614,144.301 z"/> </g>
</svg>